<svg width="16" height="15" viewBox="0 0 16 15" fill="none" xmlns="http://www.w3.org/2000/svg">
<path d="M8 -0.00146484C12.143 -0.00146484 15.5015 3.35703 15.5015 7.50004C15.5015 11.6423 12.143 15 8 15C3.857 15.0008 0.5 11.6423 0.5 7.50004C0.49925 3.35703 3.857 -0.00146484 8 -0.00146484ZM7.997 6.18604C7.8132 6.18629 7.63589 6.25402 7.49874 6.37638C7.36158 6.49874 7.27414 6.6672 7.253 6.84979L7.24775 6.93678L7.25075 11.0633L7.25525 11.1503C7.27621 11.3332 7.36373 11.502 7.50114 11.6246C7.63855 11.7472 7.81625 11.8149 8.00037 11.8149C8.1845 11.8149 8.3622 11.7472 8.49961 11.6246C8.63702 11.502 8.72454 11.3332 8.7455 11.1503L8.75 11.0625L8.747 6.93604L8.74175 6.84828C8.72007 6.66585 8.63219 6.49773 8.49477 6.37579C8.35736 6.25386 8.17996 6.1866 7.99625 6.18678L7.997 6.18604ZM8.00075 3.37429C7.75181 3.37429 7.51307 3.47318 7.33704 3.6492C7.16102 3.82523 7.06213 4.06397 7.06213 4.31291C7.06213 4.56185 7.16102 4.80059 7.33704 4.97662C7.51307 5.15264 7.75181 5.25153 8.00075 5.25153C8.12396 5.25149 8.24596 5.22717 8.35977 5.17997C8.47359 5.13277 8.57699 5.06362 8.66408 4.97646C8.75117 4.8893 8.82024 4.78584 8.86735 4.67199C8.91445 4.55814 8.93867 4.43612 8.93863 4.31291C8.93858 4.1897 8.91426 4.0677 8.86706 3.95389C8.81986 3.84007 8.75071 3.73667 8.66355 3.64958C8.57639 3.56249 8.47293 3.49342 8.35908 3.44631C8.24523 3.39921 8.12321 3.37499 8 3.37504L8.00075 3.37429Z" fill="#A12AFF"/>
</svg>
